<svg xmlns="http://www.w3.org/2000/svg" width="291" height="57" viewBox="0 0 291 57">
    <g fill="none" fill-rule="evenodd">
        <rect width="291" height="57" fill="#F5F5F5" rx="28.4"/>
        <g transform="translate(241 8)">
            <circle cx="19.6" cy="19.6" r="19.6" fill="#562685"/>
            <path fill="#FFF" d="M25.461 18.63l-9.545-5.453c-.815-.465-1.916.041-1.916.877v10.89c0 .85 1.101 1.342 1.916.877l9.545-5.452c.719-.397.719-1.329 0-1.74z"/>
        </g>
        <g stroke-linecap="round" stroke-width="1.6">
            <path stroke="#562685" d="M.4 14.4L.4 23.733M5.428 17.193L5.428 21.193M10.228 15.593L10.228 22.793M15.028 10.793L15.028 27.593M19.828 5.993L19.828 32.393M24.628.393L24.628 38.793M29.428 10.793L29.428 27.593M34.228 14.793L34.228 23.593M39.028 9.993L39.028 28.393M43.828 17.193L43.828 21.193M48.628 17.993L48.628 20.393M53.428 15.593L53.428 21.993M58.228 11.593L58.228 26.793M63.028 14.4L63.028 23.733M67.828 17.193L67.828 21.193M72.628 15.593L72.628 21.993M77.428 17.193L77.428 21.193" transform="translate(15 8)"/>
            <path stroke="#BFBFBF" d="M82.228 14.793L82.228 23.733M87.028 16.393L87.028 21.993M91.828 14.793L91.828 23.733M96.628 10.793L96.628 27.593M101.428 6.793L101.428 32.393M106.228.393L106.228 38.793M111.028 10.793L111.028 27.593M115.828 14.793L115.828 23.593M120.628 9.993L120.628 28.393M125.428 14.793L125.428 23.733M130.228 16.393L130.228 21.993M135.028 14.793L135.028 23.733M139.828 10.793L139.828 27.593M144.628 6.793L144.628 32.393M149.428.393L149.428 38.793M154.228 10.793L154.228 27.593M159.028 14.793L159.028 23.593M163.828 9.993L163.828 28.393M168.628 16.393L168.628 21.993M173.428 17.993L173.428 20.393M125.428 16.393L125.428 21.993M130.228 17.993L130.228 20.393" transform="translate(15 8)"/>
        </g>
        <text fill="#4A4A4A" font-family="Helvetica" font-size="13.6">
            <tspan x="198" y="33">02:30</tspan>
        </text>
    </g>
</svg>
